<svg width="67" height="46" viewBox="0 0 67 46" fill="none" xmlns="http://www.w3.org/2000/svg">
<path fill-rule="evenodd" clip-rule="evenodd" d="M29.9663 24.5309L29.9824 24.5399L15.6821 46L5.46359 45.9453C4.01032 45.9377 3.47871 44.9634 4.28576 43.7554L12.3845 31.6328C10.6535 31.2165 8.96274 30.5086 7.38394 29.494C-0.124553 24.6689 -2.25891 14.7347 2.61669 7.30535C7.49229 -0.123971 17.5316 -2.23513 25.0401 2.59C32.4656 7.36184 34.6351 17.1298 29.9663 24.5309ZM64.5423 24.5309L64.5584 24.5399L50.2581 46L40.0396 45.9453C38.5863 45.9377 38.0547 44.9635 38.8618 43.7555L46.9605 31.6329C45.2295 31.2166 43.5387 30.5087 41.9599 29.4941C34.4514 24.669 32.3171 14.7348 37.1927 7.30541C42.0683 -0.123927 52.1076 -2.23507 59.6161 2.59007C67.0416 7.3619 69.2111 17.1298 64.5423 24.5309ZM50.788 21.2597C54.0242 21.2597 56.6477 18.6637 56.6477 15.4614C56.6477 12.2591 54.0242 9.66308 50.788 9.66308C47.5517 9.66308 44.9282 12.2591 44.9282 15.4614C44.9282 18.6637 47.5517 21.2597 50.788 21.2597ZM16.212 21.2597C19.4482 21.2597 22.0717 18.6637 22.0717 15.4614C22.0717 12.2591 19.4482 9.66308 16.212 9.66308C12.9757 9.66308 10.3522 12.2591 10.3522 15.4614C10.3522 18.6637 12.9757 21.2597 16.212 21.2597Z" fill="black" style="fill:black;fill-opacity:1;"/>
</svg>
