<svg width="57" height="57" viewBox="0 0 57 57" fill="none" xmlns="http://www.w3.org/2000/svg">
<path fill-rule="evenodd" clip-rule="evenodd" d="M28.2923 0L0.45467 18.6585L12.0413 26.1822L25.8849 16.8526L20.3936 13.2456L27.9153 8.2062L44.2369 19.0373L17.4602 37.0137L23.2519 40.8495L56.572 18.6613L56.4968 18.5861L28.2923 0ZM56.0527 0.00776746L44.47 7.67981L50.2613 11.5908L56.0527 7.67981V0.00776746ZM0.263672 56.1015L11.8468 48.4298L6.05539 44.5184L0.263672 48.4298V56.1015Z" fill="black" style="fill:black;fill-opacity:1;"/>
<path fill-rule="evenodd" clip-rule="evenodd" d="M28.28 56.0843L56.1174 37.4254L44.5311 29.9017L30.6878 39.2313L36.1784 42.8383L28.6571 47.8781L12.3354 37.0466L39.1118 19.0706L33.3205 15.2344L0 37.4226L0.0751985 37.4985L28.28 56.0843Z" fill="black" style="fill:black;fill-opacity:1;"/>
</svg>
