<svg width="148" height="45" viewBox="0 0 148 45" fill="none" xmlns="http://www.w3.org/2000/svg">
<path d="M3.91012 22.8287V29.7605H9.06501C10.3091 29.7605 11.2868 29.4941 11.9974 28.9018C12.7973 28.3088 13.2125 27.3615 13.2125 26.206C13.2125 25.0802 12.8277 24.1911 12.0867 23.6286C11.4051 23.0653 10.4572 22.8287 9.27192 22.8287H3.91012ZM3.91012 14.356V19.6292H8.41321C9.33141 19.6292 10.0725 19.4514 10.635 19.0071C11.2571 18.5629 11.583 17.8516 11.583 16.9922C11.583 16.074 11.2571 15.3932 10.635 14.9483C10.0725 14.5635 9.36116 14.356 8.35372 14.356H3.91012ZM9.21309 33.1675H0.592303C0.20757 33.1675 0 32.96 0 32.5746V11.5419C0 11.1571 0.20757 10.9489 0.592303 10.9489H8.73911C10.6945 10.9489 12.2348 11.3938 13.3903 12.2525C14.6939 13.2302 15.4045 14.7414 15.4045 16.5183C15.4045 17.8814 14.9305 19.0071 14.1009 19.8368C13.775 20.1627 13.42 20.4 13.0346 20.6366C13.9528 20.903 14.7527 21.3473 15.3748 21.9402C16.5303 23.0065 17.1226 24.4873 17.1226 26.2357C17.1226 28.4278 16.3227 30.2345 14.8122 31.4786C13.42 32.6043 11.5235 33.1675 9.21309 33.1675Z" fill="black" style="fill:black;fill-opacity:1;"/>
<path d="M22.3962 33.1656H19.76C19.3746 33.1656 19.167 32.958 19.167 32.5726V22.4711C19.167 20.9606 19.6112 19.8646 20.4408 19.0647C21.2414 18.3534 22.426 17.9687 23.9365 17.9687H27.403C27.7878 17.9687 27.9953 18.1756 27.9953 18.561V20.8423C27.9953 21.227 27.7878 21.4346 27.403 21.4346H24.7364C23.5518 21.4346 22.9892 21.9978 22.9892 23.1526V32.5726C22.9892 32.958 22.781 33.1656 22.3962 33.1656Z" fill="black" style="fill:black;fill-opacity:1;"/>
<path d="M33.5354 28.8117C34.3353 29.671 35.4313 30.1741 36.6754 30.1741C37.9195 30.1741 39.0162 29.671 39.8161 28.8117C40.5565 27.953 41.0007 26.8265 41.0007 25.5533C41.0007 24.3092 40.5565 23.1835 39.8161 22.3538C38.9865 21.4945 37.9195 20.9908 36.6754 20.9908C35.4313 20.9908 34.3353 21.4647 33.5354 22.3241C32.7951 23.1835 32.3502 24.3092 32.3502 25.5533C32.3502 26.8265 32.7951 27.953 33.5354 28.8117ZM41.1785 30.9449C39.8749 32.6035 37.979 33.6109 35.7572 33.6109C33.6538 33.6109 31.8174 32.7515 30.4549 31.1518C29.1804 29.671 28.5293 27.7454 28.5293 25.5533C28.5293 23.4201 29.2102 21.4647 30.4549 19.984C31.8174 18.3836 33.6538 17.5546 35.7572 17.5546C37.979 17.5546 39.8749 18.5323 41.1785 20.1618L41.3861 18.5323C41.4753 18.1469 41.6525 17.9691 42.0082 17.9691H43.9926C44.378 17.9691 44.5856 18.1767 44.5856 18.562V32.5737C44.5856 32.9591 44.378 33.1667 43.9926 33.1667H42.0082C41.6525 33.1667 41.4158 32.9889 41.3861 32.6035L41.1785 30.9449Z" fill="black" style="fill:black;fill-opacity:1;"/>
<path d="M46.6289 32.5746V30.2939C46.6289 29.9086 46.8365 29.701 47.2212 29.701H53.531C53.9758 29.701 54.3308 29.5827 54.5681 29.3453C54.7162 29.1973 54.8345 28.9309 54.8345 28.6645C54.8345 28.398 54.746 28.1607 54.5384 27.9532C54.4201 27.8348 54.2422 27.7158 54.0347 27.6273L49.6499 25.7314C48.821 25.3757 48.1692 24.9612 47.6952 24.4873C46.9846 23.776 46.6587 22.9173 46.6587 21.8801C46.6587 20.8138 47.0136 19.9253 47.6952 19.2438C48.4951 18.4439 49.7689 17.97 51.3984 17.97H56.8488C57.2342 17.97 57.4417 18.1775 57.4417 18.5629V20.8435C57.4417 21.2283 57.2342 21.4365 56.8488 21.4365H51.6648C51.3098 21.4365 51.0428 21.5548 50.8947 21.7023C50.7763 21.8206 50.7169 21.9693 50.7169 22.1762C50.7169 22.325 50.7763 22.5028 50.8947 22.6211C51.013 22.7394 51.2206 22.8578 51.487 22.9761L55.3978 24.6651C56.2267 25.0201 56.8488 25.4352 57.3234 25.9092C58.0638 26.6496 58.4188 27.5678 58.4188 28.6935C58.4188 29.9383 57.9455 30.9748 57.2044 31.7747C56.3457 32.6334 55.0124 33.1675 53.4721 33.1675H47.2212C46.8365 33.1675 46.6289 32.9593 46.6289 32.5746Z" fill="black" style="fill:black;fill-opacity:1;"/>
<path d="M63.6931 33.1656H61.0562C60.6714 33.1656 60.4639 32.958 60.4639 32.5726V11.5399C60.4639 11.1552 60.6714 10.9476 61.0562 10.9476H63.6931C64.0778 10.9476 64.2861 11.1552 64.2861 11.5399V23.6854H64.6113L69.47 18.4122C69.7365 18.087 69.9143 17.9687 70.3585 17.9687H73.7061C73.9434 17.9687 74.0915 18.2939 73.9434 18.5015L67.8108 25.0188L74.2984 32.6619C74.4471 32.8694 74.3579 33.1656 74.032 33.1656H70.8325C70.2699 33.1656 69.944 33.0175 69.6175 32.6321L64.7006 26.7666H64.2861V32.5726C64.2861 32.958 64.0778 33.1656 63.6931 33.1656Z" fill="black" style="fill:black;fill-opacity:1;"/>
<path d="M77.83 23.5979H86.0951C85.6211 21.8204 84.1999 20.8129 82.066 20.8129C80.7036 20.8129 79.5778 21.2578 78.7482 22.1165C78.3634 22.5614 78.0375 23.0347 77.83 23.5979ZM82.0957 33.6109C79.8448 33.6109 77.83 32.7819 76.3485 31.2708C74.8671 29.7596 74.0977 27.7156 74.0977 25.4641C74.0977 23.3309 74.8975 21.3464 76.408 19.8656C77.8895 18.3545 79.9037 17.5546 82.0369 17.5546C84.2884 17.5546 86.2729 18.3842 87.6948 19.9245C89.0573 21.4356 89.8281 23.4499 89.8281 25.6717V25.9381C89.8281 26.264 89.5907 26.5013 89.3243 26.5013H77.5926C77.7407 27.479 78.1261 28.2789 78.7184 28.9597C79.5183 29.8191 80.6738 30.2931 82.0957 30.2931C83.6955 30.2931 85.1762 29.5824 85.9173 28.3377C86.0654 28.0713 86.2729 27.9225 86.5988 27.9225H88.9389C89.3243 27.9225 89.561 28.2194 89.4427 28.6636C88.8794 30.1748 87.9322 31.4486 86.5691 32.3073C85.2952 33.166 83.7252 33.6109 82.0957 33.6109Z" fill="black" style="fill:black;fill-opacity:1;"/>
<path d="M95.1013 33.1656H92.465C92.0796 33.1656 91.8721 32.958 91.8721 32.5726V18.561C91.8721 18.1756 92.0796 17.9687 92.465 17.9687H94.0648C94.5083 17.9687 94.7457 18.1756 94.8349 18.6205L95.1311 20.1607C96.1682 18.561 97.8268 17.7617 100.138 17.7617H100.849C102.478 17.7617 103.811 18.3236 104.729 19.3899C104.966 19.657 105.174 19.9829 105.381 20.3385C106.388 18.6205 108.107 17.7617 110.477 17.7617H111.187C112.817 17.7617 114.15 18.3236 115.068 19.3899C115.927 20.3683 116.371 21.7605 116.371 23.4197V32.5726C116.371 32.958 116.164 33.1656 115.78 33.1656H113.113C112.728 33.1656 112.52 32.958 112.52 32.5726V24.1898C112.52 22.2933 111.573 21.227 109.914 21.227H109.054C107.189 21.227 106.033 22.4413 106.033 24.5448V32.5726C106.033 32.958 105.826 33.1656 105.44 33.1656H102.774C102.389 33.1656 102.181 32.958 102.181 32.5726V24.1898C102.181 22.2933 101.234 21.227 99.5747 21.227H98.7159C96.8498 21.227 95.6943 22.4413 95.6943 24.5448V32.5726C95.6943 32.958 95.4867 33.1656 95.1013 33.1656Z" fill="black" style="fill:black;fill-opacity:1;"/>
<path d="M121.242 0C120.198 0 119.698 1.28046 120.465 1.98647L142.283 22.1129L143.436 21.0486C151.556 13.5588 146.257 0 135.212 0H121.242Z" fill="black" style="fill:black;fill-opacity:1;"/>
<path d="M121.242 0C120.198 0 119.698 1.28046 120.465 1.98647L142.283 22.1129L143.436 21.0486C151.556 13.5588 146.257 0 135.212 0H121.242Z" fill="black" style="fill:black;fill-opacity:1;"/>
<path d="M132.888 30.7777L120.472 42.2304C119.703 42.9404 120.205 44.2242 121.251 44.2242H135.478C146.429 44.2242 151.683 30.7803 143.633 23.3554L133.937 14.4134C137.735 19.2814 137.889 26.1418 132.888 30.7777Z" fill="black" style="fill:black;fill-opacity:1;"/>
<path d="M132.888 30.7777L120.472 42.2304C119.703 42.9404 120.205 44.2242 121.251 44.2242H135.478C146.429 44.2242 151.683 30.7803 143.633 23.3554L133.937 14.4134C137.735 19.2814 137.889 26.1418 132.888 30.7777Z" fill="black" style="fill:black;fill-opacity:1;"/>
</svg>
