<svg width="111" height="59" viewBox="0 0 111 59" fill="none" xmlns="http://www.w3.org/2000/svg">
<path d="M0 33.6714H8.44659L13.1402 10.3247H4.69255L0 33.6714ZM5.15794 7.54014H13.6399L15.0338 0.554926H6.5552L5.15794 7.54014ZM11.7319 40.241H20.1796L25.3409 15.0173H31.6761L32.6102 10.3247H26.3966L26.632 9.26903C26.9835 7.27925 27.6877 5.04518 30.8548 5.04518C32.734 5.04518 34.4927 5.16236 36.2515 5.98369L37.1911 1.05679C35.231 0.365205 33.1687 0.00796557 31.0902 0C24.2852 0 19.5937 3.9895 17.8328 10.3247H14.9001L13.9616 15.0173H16.8943L11.7319 40.241Z" fill="black" style="fill:black;fill-opacity:1;"/>
<path d="M38.4812 34.1416C48.4533 34.1416 55.3755 25.1069 55.3755 17.716C55.3755 12.2021 50.3303 9.85528 45.4034 9.85528C34.4895 9.85528 28.5091 19.5985 28.5091 26.2809C28.5091 31.7947 33.6715 34.1416 38.4812 34.1416ZM65.2326 34.1416C75.2047 34.1416 82.1269 25.1069 82.1269 17.716C82.1269 12.2021 76.9645 9.85528 72.0365 9.85528C61.1259 9.85528 55.1434 19.593 55.1434 26.2809C55.1434 31.7947 60.4229 34.1416 65.2326 34.1416ZM95.853 33.6718H104.182L110.985 0.474609H102.539L100.543 10.3295L97.0237 9.97799C88.8114 9.97799 81.3034 20.5359 81.3034 28.0451C81.3034 31.095 83.2931 34.146 86.7001 34.146C91.5098 34.146 94.9123 31.7992 96.3173 29.4523H96.786L95.853 33.6718ZM69.8058 51.153C63.2493 56.5854 54.8282 59.238 46.3419 58.5439C35.1959 57.8398 27.218 49.2749 25.8108 40.2413H26.2795C28.8607 45.879 35.0787 51.153 42.7051 51.9733C50.4431 52.9118 59.7165 49.3932 64.7606 44.5824L59.1295 40.2413H76.141L72.3825 58.3096L69.9185 51.2702L69.8058 51.153Z" fill="black" style="fill:black;fill-opacity:1;"/>
</svg>
