<svg width="121" height="47" viewBox="0 0 121 47" fill="none" xmlns="http://www.w3.org/2000/svg">
<path fill-rule="evenodd" clip-rule="evenodd" d="M6.13818 37.4766V0H32.6592V37.4766H6.13818ZM31.7062 36.5229V0.952359H7.09123V36.5229H31.7062ZM35.506 37.4766V0H62.027V37.4766H35.506ZM62.798 36.5229L62.2668 28.0107L61.0726 22.2155V0.952359H36.459V27.7276L34.1839 31.906L36.459 33.2995V36.5222L62.798 36.5229ZM64.8731 37.4766V0H91.3934V37.4766H64.8731ZM90.4418 36.5229V0.952359H65.8261V36.5229H90.4418ZM94.2409 37.4766V0H120.761V37.4766H94.2409ZM119.808 36.5229V0.952359H95.1939V36.5229H119.808Z" fill="black" style="fill:black;fill-opacity:1;"/>
<path fill-rule="evenodd" clip-rule="evenodd" d="M98.8672 36.5753L100.063 32.7411H110.803L107.212 45.5395C105.777 46.1078 101.012 46.6698 97.6256 46.6698C92.5257 46.6698 85.1206 43.2734 88.1638 33.264C91.8049 21.2874 98.1244 20.1543 103.224 20.1543C110.677 20.1543 113.331 24.9614 111.995 28.8437L106.786 28.8368C106.871 28.6623 106.899 28.4101 106.96 28.2088C107.86 25.1882 106.002 23.9678 102.73 23.8126C97.897 23.5851 95.2825 27.4055 93.6389 33.1142C91.8661 39.2708 93.3572 43.0308 98.7277 43.0116C102.997 42.9971 102.769 42.1183 102.769 42.1183L104.527 36.5753H98.8672ZM5.68185 46.0377H0L7.60924 20.6923H13.2918C13.2918 20.6923 5.79248 45.5175 5.68185 46.0377ZM10.1186 31.8877H10.1145L21.2178 20.6923H28.1983L15.6459 32.4174L22.0265 46.0377H15.8383L10.1152 31.8629L10.1186 31.8877ZM26.4104 46.037L34.0554 20.6896H40.5137C46.3577 20.6188 52.6531 20.5302 51.2102 28.3407C50.4543 32.4291 46.8813 36.0317 38.7876 36.0235L34.6168 36.0262L31.6236 46.037H26.4104ZM35.6021 32.3034C37.4862 32.3034 38.8618 32.3329 40.1289 32.3096C43.9376 32.2402 45.1051 30.9229 45.964 28.3414C47.455 23.86 43.6408 24.3313 37.9253 24.3375L35.6021 32.3034ZM78.3943 20.6882H86.7216L80.4083 46.0232H74.5313L80.9827 24.3245L66.9612 46.0232H62.0276L60.7166 24.3217L54.2906 46.0232H49.5288L57.2899 20.6882H65.5299C65.5299 20.6882 66.7873 33.6921 65.8226 42.6055C65.8226 42.6055 68.2736 34.7331 78.3943 20.6882Z" fill="black" style="fill:black;fill-opacity:1;"/>
</svg>
