<svg width="206" height="45" viewBox="0 0 206 45" fill="none" xmlns="http://www.w3.org/2000/svg">
<path d="M45.5006 1.09637e-05C44.7246 0.0020628 43.7148 0.237204 42.3869 0.695995C36.7823 2.6315 31.7803 5.87135 27.208 10.5247L24.0215 14.2853L25.2499 16.0436C27.3555 19.0156 29.5584 24.0517 30.5894 28.2898C31.2222 30.7226 31.4705 32.2264 31.5743 34.7366C31.592 35.1585 31.6129 35.6035 31.6231 36.0919C31.6344 36.5763 31.6428 37.0987 31.6478 37.6669C31.6705 40.6753 31.7073 44.1138 31.3923 44.1138H46.4132L47.2647 43.2466C47.7945 42.4875 47.8731 39.8063 47.8731 21.8913C47.8731 3.37118 47.8105 1.32878 47.2288 0.683069C46.8185 0.229612 46.277 -0.00183569 45.5006 1.09637e-05Z" fill="black" style="fill:black;fill-opacity:1;"/>
<path d="M2.46918 0.000559697C1.71534 -0.0121617 1.16688 0.191996 0.705217 0.610982C0.0330346 1.22161 0 2.39731 0 21.8192C0 39.7954 0.0781751 42.488 0.608371 43.2476L1.21674 44.1145H16.1525C27.683 44.1145 31.1586 44.0031 31.3921 43.6262C31.5583 43.3578 31.6712 40.6755 31.6478 37.6669C31.6129 33.1206 31.4342 31.5372 30.5894 28.2898C28.7409 21.1842 25.2586 14.7798 20.2445 10.0055C15.8835 5.85302 10.8643 2.55428 5.48559 0.696339C4.18575 0.248217 3.22262 0.0132811 2.46918 0.000559697Z" fill="black" style="fill:black;fill-opacity:1;"/>
<path d="M24.0215 14.2853L23.0726 15.434C21.3868 17.4965 18.3113 24.3351 17.2831 28.3031C16.4425 31.5471 16.2668 33.127 16.2373 37.6923C16.2174 40.71 16.164 44.115 16.4681 44.115H31.3918C31.7065 44.115 31.6704 40.6767 31.647 37.6681C31.6121 33.1219 31.3819 31.552 30.5889 28.2912C29.5578 24.0527 27.3599 19.0202 25.2543 16.0481L24.0215 14.2853Z" fill="black" style="fill:black;fill-opacity:1;"/>
<path d="M180.518 7.01173C178.418 7.01522 176.372 7.75039 174.91 9.03833C173.17 10.5723 172.532 11.8354 172.198 14.3618L171.931 16.3763H168.914V21.4557H172.028V29.0136C172.028 33.168 172.14 36.6844 172.283 36.8278C172.426 36.9713 173.827 37.0843 175.397 37.0843H178.255V21.4555H182.926V16.3763H178.255V15.0822C178.255 13.1796 179.694 11.9464 181.636 12.1762C182.453 12.2726 183.398 12.4752 183.741 12.6278C184.201 12.8334 184.676 12.4152 185.577 11.0282L186.805 9.14769L185.93 8.48823C184.907 7.70874 182.331 7.00865 180.518 7.01173ZM162.237 7.04805C159.195 7.20665 157.676 11.8077 160.681 13.4461C162.198 14.2736 163.256 14.1519 164.597 13.0185C165.558 12.2062 165.801 11.7057 165.801 10.4789C165.801 8.75436 164.877 7.57475 163.223 7.15782C162.878 7.07164 162.552 7.03204 162.237 7.04805ZM91.463 7.75655L85.1505 7.97609L81.6601 14.4228C79.7408 17.9684 78.0452 20.9928 77.9017 21.1384C77.7581 21.2837 75.9822 18.3401 73.9487 14.5939L70.2513 7.78096L64.0239 7.9763L63.5739 17.9396C63.3288 23.4193 63.0158 29.9689 62.8808 32.4937L62.6377 37.0845H68.7676L69.0228 32.1029C69.1623 29.3628 69.3008 25.6268 69.3269 23.8003C69.4176 17.4923 69.4527 17.4958 72.9636 23.7515L76.0651 29.2703H79.3368L82.3899 23.5073L85.4308 17.7443L85.7225 24.5816C85.8826 28.3423 86.1196 32.6942 86.2458 34.252L86.4647 37.0849H92.6313L92.6192 35.229C92.6145 34.2085 92.3592 28.1865 92.0475 21.8469C91.7357 15.5078 91.4808 9.74642 91.4757 9.03915L91.463 7.75655ZM137.389 7.78117V22.1761C137.389 30.0912 137.502 36.6846 137.644 36.8278C137.787 36.9713 142.078 37.0843 147.18 37.0843H156.46V31.6141H144.005V7.78055L137.389 7.78117ZM121.042 10.8821V16.34L119.388 16.4498L117.734 16.5721V21.2607L121.042 21.5053L121.055 26.6579C121.077 33.4959 121.754 35.411 124.667 36.8529C126.682 37.8503 130.805 37.6761 133.12 36.4985L135.042 35.5218L132.707 31.7122L131.016 32.3351C129.445 32.9021 129.236 32.8949 128.291 32.2742C127.276 31.6055 127.27 31.577 127.27 26.5352V21.4561H132.329V16.3767H127.306L127.184 13.7395L127.074 11.1021L121.042 10.8821ZM105.839 15.9003C101.605 15.927 98.2624 18.0691 96.5591 21.8465C95.3875 24.4446 95.4359 29.189 96.6685 31.8462C97.7104 34.0921 99.8406 36.028 102.154 36.8527C105.618 38.0871 111.732 37.3939 114.511 35.4482L115.569 34.7157L114.39 32.7988L113.222 30.8941L111.203 31.8341C109.052 32.8395 106.278 33.081 104.514 32.4082C103.202 31.9071 101.583 30.1475 101.583 29.2215C101.583 28.5419 102.031 28.489 108.783 28.489H115.983V26.6084C115.983 20.2085 111.861 15.8623 105.839 15.9003ZM105.888 20.6499C107.088 20.6304 108.213 21.0305 109.001 21.8221C109.627 22.4504 110.145 23.3294 110.145 23.7757C110.145 24.5482 109.938 24.5816 105.863 24.5816C103.134 24.5816 101.582 24.4403 101.582 24.1789C101.582 23.2559 102.755 21.588 103.711 21.151C104.42 20.8266 105.167 20.6616 105.888 20.6499ZM195.101 15.9247C189.031 15.9247 185.007 19.6658 184.58 25.7171C184.227 30.73 186.049 34.2914 189.993 36.2907C192.349 37.4859 192.635 37.5341 196.171 37.4017C199.27 37.2858 200.248 37.081 202.106 36.1686C203.331 35.5674 204.332 34.9461 204.332 34.7891C204.332 34.6322 203.812 33.6826 203.177 32.677L202.021 30.8457L200.635 31.6759C198.781 32.7736 194.779 33.1101 193.215 32.2984C191.831 31.5799 190.898 30.5488 190.539 29.368L190.272 28.489H205.183L204.915 26.4371C204 19.2686 200.88 15.9247 195.101 15.9247ZM194.797 20.6747C196.157 20.6747 196.785 20.9082 197.679 21.7491C198.308 22.3402 198.94 23.219 199.078 23.7024C199.329 24.5781 199.308 24.5816 194.797 24.5816C190.286 24.5816 190.265 24.5781 190.516 23.7026C190.654 23.2192 191.285 22.3402 191.914 21.7491C192.809 20.9082 193.436 20.6747 194.797 20.6747ZM165.412 16.3521L159.379 16.5717L159.27 26.3394C159.213 31.7079 159.251 36.3231 159.355 36.5958C159.485 36.9354 160.472 37.0841 162.481 37.0841H165.412V16.3521Z" fill="black" style="fill:black;fill-opacity:1;"/>
</svg>
