<svg width="178" height="24" viewBox="0 0 178 24" fill="none" xmlns="http://www.w3.org/2000/svg">
<path d="M38.289 11.0569C40.1583 10.0705 41.5234 8.38124 41.5234 6.1381C41.5234 2.23582 38.5097 0 33.2598 0H23.3323V23.0113H34.0487C39.1975 23.0113 42.3981 20.5194 42.3981 16.514C42.4022 13.8083 40.6111 12.0119 38.289 11.0569ZM33.3458 10.1854H27.173V1.91082H32.991C36.2666 1.91082 37.6614 3.17616 37.6614 6.1381C37.6614 8.99701 36.3708 10.1854 33.3458 10.1854ZM27.1759 21.1005V12.0962H33.29C35.2232 12.0962 38.469 12.6769 38.469 16.5678C38.469 19.7476 37.0627 21.1005 33.7652 21.1005L27.1759 21.1005ZM0 13.1591C0 7.67425 4.1837 3.22218 9.34764 3.22218C14.5002 3.22218 18.6953 7.67425 18.6953 13.1591C18.6953 18.6432 14.4965 23.0956 9.34764 23.0956C4.19876 23.0952 0 18.644 0 13.1591ZM3.62291 13.1591C3.62291 18.1805 5.7618 21.1844 9.34764 21.1844V21.1771C12.9184 21.1771 15.05 18.1805 15.05 13.1587C15.05 8.13687 12.9335 5.13299 9.34764 5.13299C5.7618 5.13299 3.62291 8.1377 3.62291 13.1591ZM45.6399 13.1591C45.6399 7.67425 49.824 3.22218 54.9879 3.22218C60.1405 3.22218 64.336 7.67425 64.336 13.1591C64.336 18.6432 60.1368 23.0956 54.9879 23.0956C49.839 23.0956 45.6399 18.6436 45.6399 13.1591ZM49.2632 13.1591C49.2632 18.1805 51.4021 21.1844 54.9879 21.1844V21.1771C58.5587 21.1771 60.6903 18.1805 60.6903 13.1587C60.6903 8.13687 58.5738 5.13299 54.9879 5.13299C51.4021 5.13299 49.2632 8.13729 49.2632 13.1591ZM71.9752 5.36228H65.1326V3.47386H82.2917V5.36187H75.4189V22.8163H71.9752V5.36228ZM89.2312 3.47427H85.7651V22.8167H89.2312V3.47427ZM102.416 21.1347C103.953 21.1347 106.705 20.6493 107.879 17.4043L108.212 16.4644L109.89 17.3013L109.617 18.0657C108.454 21.2382 105.777 23.061 102.27 23.061C97.0012 23.061 93.0273 18.8032 93.0273 13.1624C93.0273 7.59402 97.0871 3.22543 102.27 3.22543C105.758 3.22543 108.417 5.06377 109.569 8.27413L109.838 9.03854L108.159 9.89458L107.826 8.94691C106.977 6.55065 105.007 5.17453 102.416 5.17453C98.8147 5.17453 96.6644 8.15155 96.6644 13.151C96.6644 18.15 98.8147 21.1347 102.416 21.1347ZM146.276 19.3159L145.27 16.3805C144.873 15.3002 144.113 14.3913 143.12 13.8087C144.922 13.0023 146.486 11.4886 146.486 9.06583C146.486 5.56876 143.692 3.482 139.008 3.482H131.963V22.8244H135.433V14.5918H138.458C140.675 14.5918 141.389 15.4788 142.003 17.2328L142.978 20.0225C143.228 20.8721 143.596 21.6826 144.07 22.4306L144.332 22.8126H148.995L147.346 21.261C146.839 20.707 146.473 20.0402 146.276 19.3159ZM135.433 5.35862H138.775C141.688 5.35862 142.934 6.47042 142.934 9.07682C142.934 11.5802 141.659 12.6965 138.802 12.6965H135.436L135.433 5.35862ZM151.545 3.47427H155.011V22.8167H151.545V3.47427ZM168.169 3.22177C163.009 3.22177 158.821 7.67425 158.821 13.1587C158.821 18.6432 163.024 23.0956 168.169 23.0956C173.314 23.0956 177.516 18.6432 177.516 13.1587C177.516 7.67425 173.322 3.22177 168.169 3.22177ZM168.169 5.10979C171.74 5.10979 173.871 8.11408 173.871 13.1359C173.871 18.1577 171.74 21.1616 168.169 21.1616C164.598 21.1616 162.429 18.1691 162.429 13.1432C162.429 8.11774 164.587 5.10979 168.169 5.10979ZM120.386 0.401553H122.42L120.846 4.15071L129.132 22.8281H125.445L122.524 16.2583H115.69L112.859 22.8167H110.829L120.386 0.401553ZM119.017 8.36984L116.482 14.3475H121.672L119.017 8.36984Z" fill="black" style="fill:black;fill-opacity:1;"/>
</svg>
