<svg width="178" height="28" viewBox="0 0 178 28" fill="none" xmlns="http://www.w3.org/2000/svg">
<path d="M11.7959 17.468L8.54396 17.3426V13.4598L14.6207 13.3223C17.1431 13.2644 19.0583 11.3158 19.2095 8.82205C19.4327 6.39345 17.6879 4.05409 15.1415 4.03962L4.58638 3.98174L4.59118 27.5804L0 27.5707V0L16.0775 0.0385874C18.2279 0.0434109 20.0663 1.28303 21.6527 2.56848C24.2351 5.62653 24.5927 9.99414 22.2983 13.332C21.4463 14.5716 20.0039 15.2975 18.6839 15.9945C22.6823 18.8138 24.1079 22.8196 24.2039 27.5804L19.5815 27.5635C19.8503 22.5061 16.6583 17.6537 11.7983 17.4656L11.7959 17.468Z" fill="black" style="fill:black;fill-opacity:1;"/>
<path d="M107.616 8.34465C111.038 9.87126 113.15 13.0571 113.536 16.4432C113.963 20.1765 112.562 23.7603 109.487 26.0032C107.272 27.6191 104.46 28.2654 101.793 27.8434C96.6908 27.0354 93.1532 22.8801 93.158 17.7407L93.1772 0.00976562H97.1587L97.1827 9.92915C100.197 7.39443 104.004 6.73604 107.616 8.34706V8.34465ZM109.629 18.3557C109.977 14.2751 106.821 11.1326 103.111 11.3304C99.4003 11.5281 96.5804 14.9841 97.2283 18.9683C97.7347 22.0866 100.598 24.2981 103.713 24.1124C106.828 23.9267 109.346 21.6573 109.629 18.3557Z" fill="black" style="fill:black;fill-opacity:1;"/>
<path d="M60.2855 27.7825C57.0791 28.3806 53.8031 27.4762 51.4895 25.3418C48.4871 22.5756 47.3975 18.5649 48.6551 14.5253C49.7111 11.1272 52.7447 8.18731 56.6495 7.59885C59.5823 7.15751 62.2343 7.9389 64.5935 9.94304L64.6127 0.00195312L68.6207 0.00677655L68.5943 17.9644C68.5871 22.8626 65.1839 26.8684 60.2831 27.7825H60.2855ZM64.5959 18.6011C65.0639 14.4939 62.0807 11.2719 58.2383 11.3225C54.5855 11.3708 51.7487 14.6386 52.1447 18.4853C52.4711 21.6736 55.1207 24.0564 58.2599 24.1143C61.3967 24.1722 64.2143 21.9534 64.5959 18.5987V18.6011Z" fill="black" style="fill:black;fill-opacity:1;"/>
<path d="M126.549 24.3002C128.877 24.1604 130.567 23.2174 132.191 21.5822L134.971 24.2182C130.718 28.458 124.012 29.401 119.231 25.658C114.143 21.6739 114.278 13.6188 119.325 9.68284C123.535 6.40049 129.691 6.74054 133.286 10.5679C135.511 12.9362 135.931 16.2282 135.645 19.2935L119.615 19.3032C120.443 22.5638 123.235 24.498 126.549 24.3002ZM131.829 15.9244C131.378 13.761 130.027 12.1331 128.119 11.4603C124.519 10.1917 120.698 12.0632 119.647 15.9244H131.829Z" fill="black" style="fill:black;fill-opacity:1;"/>
<path d="M42.3524 25.8615C37.9892 29.0377 31.982 28.6639 28.3749 24.6894C24.9333 20.8982 24.9261 14.77 28.2597 10.9064C31.7948 6.81375 37.826 6.41582 42.1556 9.44252C44.7668 11.2682 46.1636 14.3793 46.2524 17.4374C46.3436 20.5726 45.0836 23.8718 42.3524 25.8615ZM35.1476 24.0744C37.9052 24.4627 40.4972 22.9047 41.6108 20.7269C42.9188 18.1753 42.434 15.2523 40.514 13.2554C38.6252 11.2923 35.882 10.7883 33.4244 11.8398C31.0988 12.8358 29.6901 15.2813 29.7693 17.98C29.8605 21.1056 31.9004 23.6162 35.1476 24.0744Z" fill="black" style="fill:black;fill-opacity:1;"/>
<path d="M87.5274 25.6887C83.3226 29.0409 77.3202 28.6912 73.6531 24.9868C69.9859 21.2825 69.8107 15.598 72.7963 11.4861C76.2282 6.76153 83.2338 6.10313 87.7218 9.92811C92.4474 13.9557 92.4954 21.7262 87.5274 25.6887ZM77.6826 23.207C80.3826 24.8518 83.6274 24.2199 85.5954 22.1097C87.5634 19.9994 87.8946 16.8136 86.3298 14.3319C84.7962 11.8961 81.9954 10.6999 79.0362 11.6018C76.6554 12.3278 75.0858 14.5393 74.7906 16.8353C74.4739 19.3121 75.4243 21.8299 77.6826 23.207Z" fill="black" style="fill:black;fill-opacity:1;"/>
<path d="M177.786 23.1089C175.914 29.5771 164.786 28.8054 159.045 25.2288L160.319 21.7993C163.943 24.0567 169.66 25.7111 173.118 23.4586C173.644 23.1161 174.064 22.2986 174.028 21.7366C173.992 21.1723 173.274 20.3644 172.6 20.2124L164.805 18.4495C163.226 18.0925 161.464 17.6536 160.396 16.3561C158.918 14.5618 159.119 11.7015 160.648 9.96506C163.929 6.23655 172.137 7.17712 176.757 9.5816L175.794 12.9266C172.35 10.8984 164.954 9.93371 163.566 12.3334C163.336 12.7337 163.379 13.8407 163.783 14.1277C165.94 15.6615 170.202 15.3987 174.94 17.357C177.33 18.3458 178.504 20.6321 177.789 23.1113L177.786 23.1089Z" fill="black" style="fill:black;fill-opacity:1;"/>
<path d="M148.123 11.2094C144.926 11.1732 142.053 13.3293 142.024 16.5634L141.923 27.5487L137.942 27.5704V7.92461L141.597 7.90773L141.674 10.3629C145.327 6.38112 152.956 6.46553 155.579 10.8621C156.319 12.1017 157.046 13.8092 157.053 15.3069L157.106 27.5801H153.23L153.127 15.958C153.103 13.1822 150.897 11.2407 148.123 11.2094Z" fill="black" style="fill:black;fill-opacity:1;"/>
</svg>
