<svg width="139" height="58" viewBox="0 0 139 58" fill="none" xmlns="http://www.w3.org/2000/svg">
<path d="M105.649 50.2557C105.053 51.5343 104.534 52.8129 105.013 54.1239C105.93 56.6352 110.769 52.8874 112.083 49.8066C113.752 45.8906 116.566 42.9646 120.533 41.3917C124.306 39.8953 128.406 39.7806 132.166 41.5446L129.644 47.926C129.117 49.2638 128.885 50.6513 128.76 52.0809C128.809 53.0594 129.103 54.101 129.975 54.5711C132.823 56.102 135.826 52.3523 137.711 49.6155L139.005 51.0202C136.619 54.8712 132.238 59.7141 127.935 57.3805C126.494 56.5989 125.905 55.026 125.641 53.3098C122.987 56.4479 119.348 58.8712 115.48 57.6844C113.56 57.0958 112.278 55.4311 111.853 53.5754C110.609 54.896 109.489 56.0485 108.045 56.9524C106.255 58.0743 103.858 58.3992 101.986 57.3309C100.235 56.3332 99.762 54.1125 100.134 52.2414C100.941 48.1783 104.435 44.614 102.996 43.2513C102.487 42.7697 100.958 42.5958 99.8551 42.8098C98.4213 46.6054 96.8661 50.1602 94.4487 53.4015L92.1927 55.8898C90.4703 57.7895 87.7927 58.4928 85.381 57.6194C84.084 57.1493 83.2883 56.0848 82.8554 54.7412C81.7065 56.2663 80.0695 57.4245 78.2237 57.8488C75.2746 58.5272 72.7566 56.7862 72.2989 53.6366C70.4056 55.8401 68.2009 57.4474 65.5005 57.8774C63.2312 58.2387 61.1689 57.6538 59.9308 55.6872C58.949 54.2099 58.6015 52.5376 58.4819 50.5711L55.7682 51.5094L54.2016 55.693C53.6281 57.2219 52.1621 57.759 50.6125 57.8182L48.5673 57.8966L49.1161 55.6395C47.2228 57.6347 44.38 58.768 42.2778 57.4092C41.0131 56.5912 40.639 55.0795 40.3523 53.5219C37.519 56.8817 33.2956 59.3223 29.3685 57.2181C27.7848 56.3695 26.9758 54.6342 26.8201 52.8205C24.8698 54.3131 23.081 54.5558 20.5516 54.3685C17.1524 57.8392 12.8778 58.3208 8.05623 57.7934C5.21155 57.4818 2.10291 56.2912 0.667281 53.8506C-0.504393 51.8592 -0.139788 49.3517 1.81427 48.0655C3.34865 47.0564 5.37866 46.6092 7.19789 46.8462C9.25069 47.1138 11.1231 47.6183 12.9499 48.5223L17.8987 50.9724C18.8577 45.5734 10.1052 42.6875 7.27575 38.3874C5.69579 35.9889 5.75656 32.9463 7.46185 30.609C8.76455 28.822 10.8496 27.704 13.1075 27.3848C18.0031 26.6911 23.0164 27.5798 27.498 29.6534L26.051 32.5622C25.825 33.0151 25.4206 33.619 25.0502 33.7547C24.5641 33.9325 23.8653 33.8407 23.3791 33.6286C20.1205 32.2048 16.3605 30.5574 13.1132 32.1092C12.4163 32.4418 11.82 33.0075 11.6073 33.6171C11.0281 35.2741 12.9917 37.1279 14.678 38.3778C16.9758 40.0826 19.3058 41.6822 21.0168 43.9852C22.7829 46.3627 23.2101 49.4435 21.9283 52.0522C24.4293 52.4478 26.5903 51.0928 27.6443 48.8415C29.8718 44.0808 34.361 41.1108 39.5319 40.3693C42.3595 39.9641 45.0276 40.5699 47.6634 42.0492L46.3398 44.7592C45.0523 47.3966 42.8361 52.379 44.4047 54.294C45.0181 55.0413 46.1518 55.1101 46.9569 54.7393C48.5179 54.0188 49.532 52.7613 50.3903 51.2954C53.7686 45.5275 56.1651 37.1126 57.5742 30.5019C59.5206 32.0022 62.4641 31.4059 61.9988 33.9688C61.7481 35.3486 61.3 36.7247 60.8024 38.0644L57.3919 47.2399C61.3399 45.7339 64.6175 43.0124 66.8108 39.5054C67.1166 39.7921 67.5761 40.0883 68.0186 40.2871L69.4884 40.9464C69.7676 41.0726 70.1853 41.5121 70.2784 41.7835C70.8576 43.4654 65.66 47.2495 63.1876 48.3904C62.8495 50.4984 63.6186 53.8583 65.3182 54.6514C67.5875 55.7102 71.3817 52.1726 72.8819 49.0899C74.0403 46.7086 74.9841 44.3407 75.9544 41.8504C76.1595 41.3249 76.207 40.6215 76.2469 40.0654L78.9757 40.9235C79.9613 41.2331 80.5956 42.2021 80.1683 43.2628L77.1508 50.7316C76.7786 51.6509 76.5583 52.981 76.9647 53.8449C77.4319 54.8368 78.7422 54.7087 79.6138 54.3265C82.5819 53.0231 84.2283 47.7712 85.4874 44.3846C86.0267 42.9341 86.4103 41.4835 86.6438 40.0386L89.9367 41.1567C90.738 41.43 91.1026 42.2709 90.8311 43.0965C90.1133 45.2752 89.1562 47.2915 88.1687 49.3766C87.3692 51.0661 86.7882 53.3289 87.8383 54.3055C88.8884 55.2821 90.721 53.9787 91.9553 52.616C93.6416 50.7584 94.7981 48.6045 95.776 46.3187L97.168 43.0678C97.3674 42.6015 97.1015 41.8485 96.7654 41.3994L98.5353 39.4252C99.762 40.2833 101.118 40.9331 102.696 40.7668L105.024 40.5222L107.14 40.0826C108.615 41.0382 109.086 42.8576 108.328 44.4859L105.639 50.2634L105.649 50.2557ZM35.2041 53.6652C38.6622 52.1497 40.5232 47.3163 41.5847 43.6641C38.9489 43.345 36.5429 44.3158 34.7769 46.0856C32.6861 48.1821 30.394 51.6088 32.443 53.4588C33.1646 54.1105 34.1787 54.1736 35.2041 53.6652ZM119.521 53.8946C123.484 52.5606 125.244 47.5533 126.498 43.689C120.581 42.4601 114.536 50.917 117.187 53.3919C117.778 53.9424 118.638 54.0991 119.521 53.8946ZM16.9112 53.0212L13.4171 51.2839C12.1258 50.6418 10.806 50.1525 9.4178 49.7321C7.9271 49.5123 6.36424 49.3307 5.09761 50.2538C3.98291 51.0641 4.21269 52.7498 5.25333 53.6098C8.51579 56.3065 14.0114 56.2147 16.9112 53.0212Z" fill="black" style="fill:black;fill-opacity:1;"/>
<path d="M77.3353 28.3617C74.4203 28.6598 71.6079 27.2379 69.6121 25.0382C68.0093 26.6665 66.2642 27.8514 64.0348 28.2967L61.8927 28.3961L61.1749 26.9417L59.4335 26.6091C58.4157 23.7768 58.7898 20.9177 60.2482 18.2268C57.4947 16.973 55.514 14.8345 54.6785 11.9792L55.9261 10.7446L55.5672 9.01687C57.8878 7.37709 60.8426 6.52662 63.805 7.28727C64.3367 4.24087 65.4628 1.77165 68.0492 0.00191116L69.6026 0.798866L71.156 0C73.5924 1.63596 74.9387 4.22749 75.3641 7.27771C78.243 6.60689 81.2661 7.26433 83.6095 9.03025L83.2677 10.7484L84.5514 11.9983L83.5013 14.3012C82.6581 16.1512 80.8066 17.2769 78.9494 18.2554C80.4002 20.8795 80.7401 23.7825 79.7754 26.5958L78.0626 26.8863L77.3353 28.3655V28.3617ZM69.6026 22.439C71.2813 24.8432 73.4594 26.418 76.2016 26.7525L76.9251 25.4051L78.4974 25.1528L78.7006 23.0486C78.5601 20.9444 77.7245 19.1155 76.4104 17.4164C79.0234 16.7093 81.3687 15.0829 82.5499 12.5239L81.6896 11.4498C81.4428 11.1421 81.6668 10.3031 81.7732 9.85969C80.2426 8.94233 78.469 8.44352 76.7409 8.77606L73.8221 9.33603C73.9 6.62027 73.0587 3.80895 70.9945 1.98379L69.576 2.61256L68.2429 1.96659C66.192 3.78219 65.252 6.49987 65.4115 9.33986C62.6884 8.55246 59.557 8.30974 57.3902 9.9457C57.5402 10.4254 57.7434 11.1803 57.5326 11.4307L56.6382 12.4952L57.3446 13.7776C58.691 15.6448 60.6641 16.8526 62.7567 17.4031C60.9983 19.7672 59.9405 22.546 60.7799 25.2121L62.3029 25.3669L62.9922 26.7544C65.2159 26.4849 67.0826 25.3783 68.5392 23.6793L69.6026 22.439Z" fill="black" style="fill:black;fill-opacity:1;"/>
<path d="M69.8989 19.8338C69.9464 20.1014 70.4952 20.5868 70.4325 20.8486C70.3622 21.1411 69.971 21.5252 69.7033 21.5539C69.3273 21.594 68.8848 21.3532 68.826 21.0264C68.7481 20.6002 68.9817 20.1931 69.3862 19.8854L69.3975 17.0435C68.6342 17.5003 68.8658 18.4845 68.843 19.1764C68.8374 19.3656 68.3246 19.7268 68.2145 19.593L67.7625 19.0464C67.5157 18.7464 68.8544 18.2342 68.6019 16.7855L65.5996 20.9863C65.8237 21.4774 65.8199 21.9973 65.5559 22.2935C65.2919 22.5897 64.6501 22.735 64.3519 22.4923C64.0272 22.2266 63.8012 21.5883 63.9304 21.25C64.0918 20.8295 64.7127 20.69 65.2729 20.7531L68.2012 16.646C67.6809 16.5371 67.1833 16.9308 66.9308 17.2499L66.6117 17.9207C66.5168 18.1195 65.8806 17.9628 65.7591 17.7793C65.0888 16.7702 67.3258 17.1735 67.7416 15.8567L65.0109 16.8046C64.859 17.1983 64.6007 17.6264 64.3557 17.6876C64.0481 17.764 63.4575 17.4621 63.3778 17.1773C63.298 16.8925 63.4803 16.2561 63.75 16.1051C64.0006 15.9656 64.5684 16.1529 64.9027 16.3383L67.6961 15.4381C66.5567 14.6718 65.7059 15.7592 65.0983 15.4381C64.9122 15.3388 64.783 14.7635 64.952 14.6355C65.6015 14.1462 66.4807 15.3369 67.6258 14.6087L63.0075 13.1237C62.6543 13.4142 62.1434 13.6627 61.813 13.5709C61.4826 13.4792 61.1161 12.9517 61.1009 12.6115C61.0876 12.3019 61.5244 11.7439 61.9136 11.6196C62.4852 11.4381 62.9771 12.1376 63.148 12.7472L67.7397 14.2207C67.2004 12.7854 65.6224 13.3187 65.6793 12.6306C65.6964 12.4242 65.9376 12.0439 66.1351 11.9847C66.8054 11.784 66.7333 13.3989 68.224 13.5021L66.5567 11.2451C66.2528 11.1648 65.6243 11.0444 65.4951 10.8208C65.366 10.5972 65.4799 10.0028 65.6698 9.82888C65.8597 9.65496 66.4237 9.63776 66.7067 9.75817C66.9896 9.87857 67.0789 10.4328 66.9061 10.9068L68.5563 13.2231C68.6361 12.7606 68.4727 12.0917 68.2525 11.826L67.7416 11.2221C67.6144 11.0711 67.9296 10.7214 68.1233 10.5379C68.2658 10.4022 68.7633 10.6545 68.7709 10.859C68.788 11.6273 68.6361 12.4013 69.3672 13.0779L69.4317 8.9077C69.4412 8.26172 67.9923 7.43992 68.9228 6.60092C69.2931 6.26838 70.0793 6.36012 70.3717 6.82644C70.6927 7.33863 70.4857 7.9502 69.7508 8.23879L69.7584 12.9842C70.4686 12.4663 70.4686 11.677 70.2464 10.9335L70.8636 10.4233C71.0117 10.3009 71.3288 10.8036 71.3972 11.0062C71.4579 11.1877 71.2073 11.3979 70.9319 11.6388C70.7249 12.0477 70.5502 12.6326 70.4705 13.2537L72.2251 10.9985C72.2023 10.6832 72.1226 10.1328 72.2555 9.90915C72.4074 9.65305 73.1594 9.56514 73.3949 9.74479C73.6019 9.90341 73.7804 10.4022 73.7367 10.6927C73.6893 11.0119 73.0588 11.2145 72.6011 11.1839L71.025 13.4391C71.8339 13.483 72.2707 12.6784 72.4853 12.2178C72.5727 12.0286 73.2069 11.8432 73.2449 12.0363L73.4424 13.0358C72.6049 13.0779 71.8719 13.246 71.4617 14.215L75.9927 12.6631C76.175 12.1758 76.4789 11.5986 77.0201 11.5394C77.453 11.4916 77.9031 11.9464 77.962 12.2828C78.0265 12.6478 77.8252 13.2097 77.5594 13.3645C77.1226 13.6206 76.5624 13.4773 76.1314 13.0702L71.5833 14.6412C72.6638 15.1534 73.3987 14.3736 74.1146 14.5074C74.3197 14.5456 74.2779 15.1094 74.1678 15.3044C73.8317 15.9083 72.7018 14.6011 71.5738 15.3808L74.3121 16.2963C74.6141 16.2083 75.2027 15.9714 75.4344 16.1262C75.6794 16.2905 75.8579 16.8639 75.7648 17.1238C75.6623 17.4066 75.1268 17.7487 74.8647 17.6666C74.6027 17.5844 74.2779 17.0359 74.1127 16.7244L71.4219 15.8242C72.0295 17.2518 74.0937 16.6766 73.4253 17.8118C73.3152 17.9991 72.6942 18.1195 72.6049 17.9112C72.4112 17.399 71.8909 16.4988 70.9908 16.602L73.9551 20.6938C74.4678 20.6002 75.0565 20.6881 75.1838 20.9977C75.3604 21.4296 75.2749 22.1043 75.0015 22.2954C74.6862 22.5171 73.9437 22.5075 73.6931 22.2782C73.3702 21.982 73.3873 21.3972 73.619 20.8678L70.5426 16.732C70.3129 18.0125 71.5548 18.6565 71.4542 19.0923C71.4067 19.3025 70.9756 19.5682 70.7629 19.5892C70.0451 19.6637 70.7876 17.7717 69.8286 17.0856C69.783 17.9895 69.7394 18.949 69.8989 19.8396V19.8338ZM69.2209 14.108C68.5981 14.3851 68.4746 15.1648 68.7291 15.6006C68.9266 15.9389 69.5912 16.1606 70.0337 15.9637C70.3926 15.8051 70.6433 15.075 70.5104 14.5915C70.4154 14.2513 69.6729 13.9073 69.2209 14.108Z" fill="black" style="fill:black;fill-opacity:1;"/>
</svg>
