<svg width="167" height="55" viewBox="0 0 167 55" fill="none" xmlns="http://www.w3.org/2000/svg">
<path d="M0 20.9859L0.0297599 17.9435C0.522924 15.022 1.74308 12.7262 3.77101 10.685L14.3783 0C16.9121 2.65398 16.2999 6.17968 13.9659 8.52727L7.14663 15.4017C4.81261 17.7579 5.04643 21.5339 7.32094 23.8297L14.3528 30.9415C16.5593 33.1726 16.6613 36.7285 14.3996 39.0675L3.52868 28.0977C1.60704 26.1557 0.446399 23.5967 0 20.9859Z" fill="black" style="fill:black;fill-opacity:1;"/>
<path d="M166.995 22.3019V23.165C166.37 24.0712 165.427 24.6797 164.1 24.7574C161.362 24.9214 158.939 27.4804 158.884 30.4365L158.65 42.7225C158.637 43.4518 156.881 44.1163 156.176 44.1034C155.47 44.0905 153.897 43.387 153.88 42.6103C153.799 38.3855 153.714 34.6742 153.956 30.6825C154.343 24.3172 159.806 19.9716 165.852 20.7354L166.995 22.3019Z" fill="black" style="fill:black;fill-opacity:1;"/>
<path d="M58.8611 42.6841C50.4688 47.3836 39.3386 41.3377 42.4507 37.6955C44.9165 34.8085 48.2156 42.2181 55.4983 39.426C57.2286 38.7614 58.436 37.0914 58.5423 35.417C58.6486 33.7426 57.6835 31.7446 56.0212 30.9246L47.2208 26.5661C44.096 25.0168 42.4039 21.9529 42.5272 18.7163C42.659 15.3071 44.6571 12.4244 48.0498 11.1298C55.5365 8.273 65.081 12.7783 62.0242 16.5025C60.0133 18.9537 56.948 12.8387 50.1245 15.0439C48.4919 15.5704 47.3058 17.0419 47.2548 18.7034C47.2165 20.0541 48.3346 21.9227 49.7801 22.6131L57.845 26.4754C60.9443 27.9599 62.9978 30.7434 63.2741 33.8505C63.5802 37.333 62.19 40.8242 58.8654 42.6885L58.8611 42.6841Z" fill="black" style="fill:black;fill-opacity:1;"/>
<path d="M145.994 41.4497C141.743 45.3034 134.554 45.4544 130.536 41.1476C126.204 36.5043 126.225 28.3913 130.553 23.7738C134.23 19.8511 140.446 19.713 144.723 22.4144C150.662 26.1688 150.977 36.9272 145.994 41.4497ZM144 28.8703C143.133 26.0653 140.888 24.6412 138.303 24.6584C135.91 24.6757 133.746 26.117 132.87 28.6804C132.02 31.1747 132.088 34.0143 133.053 36.4697C134.082 39.0935 136.445 40.414 139.073 40.2069C143.868 39.8228 145.56 33.915 144 28.8703Z" fill="black" style="fill:black;fill-opacity:1;"/>
<path d="M78.5958 39.9644C83.1151 39.5933 84.5988 36.2272 86.3292 38.8553C88.0595 41.4834 82.6729 44.7675 76.4149 44.064C72.461 43.6239 69.2342 41.108 68.0396 37.25C65.8586 30.2072 68.3669 21.9173 75.8409 20.7435C82.014 19.7726 87.0306 24.1786 87.1157 30.5266C87.1412 32.4685 86.1974 33.9962 84.0674 33.9962H72.2017C72.1762 37.6513 74.9099 40.2708 78.5958 39.9644ZM82.3796 30.1684C82.3839 26.3061 79.9393 24.5152 77.1036 24.6015C74.2679 24.6878 72.2442 27.044 72.1932 30.2116L82.3796 30.1684Z" fill="black" style="fill:black;fill-opacity:1;"/>
<path d="M14.4382 46.9681L21.6316 39.6189C24.0294 37.1721 23.8041 33.409 21.4786 31.0744L14.6295 24.1999C12.389 21.9516 12.1169 18.5122 14.451 15.8496L25.6407 27.2596C30.1515 31.8598 29.9134 39.3471 25.4366 43.8782L14.4425 54.9991C12.219 52.5479 12.3253 49.1344 14.4425 46.9681H14.4382Z" fill="black" style="fill:black;fill-opacity:1;"/>
<path d="M108.173 30.7854C108.088 27.1518 105.452 24.8128 102.519 24.6575C99.381 24.4935 96.337 26.6642 96.2265 30.2675L95.8396 42.9031C95.7928 44.4825 91.5542 44.5084 91.3969 42.929C90.9972 38.8379 91.0185 34.6218 91.2906 30.5782C91.6987 24.5798 96.303 20.7175 101.945 20.5967C107.994 20.4672 112.79 24.6445 113.1 30.9925C113.283 34.7858 113.245 38.661 113.134 42.6485C113.117 43.3432 111.693 44.0251 111.077 44.0898C110.371 44.1632 108.471 43.641 108.454 42.9031L108.173 30.7854Z" fill="black" style="fill:black;fill-opacity:1;"/>
<path d="M123.015 42.4772C122.662 43.392 121.552 44.1041 120.881 44.0911C119.847 44.0696 118.81 43.6035 118.27 42.7102L118.262 22.1947C118.763 21.5086 119.682 20.9217 120.451 20.8267C121.221 20.7318 122.547 21.4611 122.994 22.2335L123.015 42.4815V42.4772Z" fill="black" style="fill:black;fill-opacity:1;"/>
<path d="M118.968 11.327C120.584 10.3604 122.577 10.8912 123.321 12.4965C123.861 13.6617 123.526 15.6425 122.293 16.4192C120.958 17.2607 119.011 16.9155 118.139 15.6295C117.267 14.3435 117.323 12.3066 118.968 11.327Z" fill="black" style="fill:black;fill-opacity:1;"/>
</svg>
